<?xml version="1.0" encoding="UTF-8"?>
<svg width="600" height="400" viewBox="0 0 600 400" fill="none" xmlns="http://www.w3.org/2000/svg">
    <!-- Background Elements -->
    <circle cx="300" cy="200" r="180" fill="url(#gradient1)" opacity="0.1"/>
    <circle cx="300" cy="200" r="150" fill="url(#gradient2)" opacity="0.15"/>
    
    <!-- Camera Body -->
    <rect x="200" y="120" width="200" height="160" rx="20" fill="#D3071D" opacity="0.9"/>
    <rect x="220" y="140" width="160" height="120" rx="10" fill="#1E5631" opacity="0.9"/>
    
    <!-- Camera Lens -->
    <circle cx="300" cy="200" r="50" fill="#333333"/>
    <circle cx="300" cy="200" r="40" fill="#1E5631"/>
    <circle cx="300" cy="200" r="30" fill="#D3071D"/>
    <circle cx="300" cy="200" r="20" fill="#FFFFFF"/>
    
    <!-- Camera Flash -->
    <rect x="280" y="80" width="40" height="20" rx="5" fill="#D3071D"/>
    
    <!-- Media Icons -->
    <g transform="translate(150, 300)">
        <!-- Video Icon -->
        <circle cx="30" cy="30" r="25" fill="#D3071D" opacity="0.8"/>
        <path d="M25 20L40 30L25 40V20Z" fill="white"/>
    </g>
    
    <g transform="translate(300, 300)">
        <!-- Photo Icon -->
        <circle cx="30" cy="30" r="25" fill="#1E5631" opacity="0.8"/>
        <path d="M30 20C33.866 20 37 23.134 37 27C37 30.866 33.866 34 30 34C26.134 34 23 30.866 23 27C23 23.134 26.134 20 30 20Z" fill="white"/>
        <path d="M40 40L35 35M35 35L30 30M35 35L30 40M35 35L40 30" stroke="white" stroke-width="2"/>
    </g>
    
    <g transform="translate(450, 300)">
        <!-- Social Media Icon -->
        <circle cx="30" cy="30" r="25" fill="#D3071D" opacity="0.8"/>
        <path d="M25 25H35M25 30H35M25 35H35" stroke="white" stroke-width="2" stroke-linecap="round"/>
    </g>
    
    <!-- Decorative Elements -->
    <circle cx="100" cy="100" r="10" fill="#D3071D" opacity="0.6"/>
    <circle cx="500" cy="100" r="15" fill="#1E5631" opacity="0.6"/>
    <circle cx="100" cy="300" r="12" fill="#1E5631" opacity="0.6"/>
    <circle cx="500" cy="300" r="8" fill="#D3071D" opacity="0.6"/>
    
    <!-- Gradients -->
    <defs>
        <radialGradient id="gradient1" cx="0" cy="0" r="1" gradientUnits="userSpaceOnUse" gradientTransform="translate(300 200) rotate(90) scale(180)">
            <stop offset="0%" stop-color="#D3071D"/>
            <stop offset="100%" stop-color="#1E5631"/>
        </radialGradient>
        <radialGradient id="gradient2" cx="0" cy="0" r="1" gradientUnits="userSpaceOnUse" gradientTransform="translate(300 200) rotate(90) scale(150)">
            <stop offset="0%" stop-color="#1E5631"/>
            <stop offset="100%" stop-color="#D3071D"/>
        </radialGradient>
    </defs>
</svg> 