<?xml version="1.0" encoding="UTF-8"?>
<svg width="600" height="400" viewBox="0 0 600 400" fill="none" xmlns="http://www.w3.org/2000/svg">
    <!-- Abstract Background -->
    <path d="M0 0H600V400H0V0Z" fill="url(#gradient1)" opacity="0.1"/>
    
    <!-- Main Media Circle -->
    <circle cx="300" cy="200" r="120" fill="url(#gradient2)" opacity="0.15"/>
    
    <!-- Abstract Media Elements -->
    <g transform="translate(300, 200)">
        <!-- Central Element -->
        <circle cx="0" cy="0" r="80" fill="#D3071D" opacity="0.2"/>
        <circle cx="0" cy="0" r="60" fill="#1E5631" opacity="0.2"/>
        
        <!-- Floating Elements -->
        <g class="floating-element" transform="translate(-100, -50)">
            <rect x="-20" y="-20" width="40" height="40" rx="10" fill="#D3071D" opacity="0.3"/>
            <circle cx="0" cy="0" r="15" fill="#1E5631" opacity="0.3"/>
        </g>
        
        <g class="floating-element" transform="translate(100, -50)">
            <polygon points="0,-20 17.32,10 -17.32,10" fill="#D3071D" opacity="0.3"/>
            <circle cx="0" cy="0" r="15" fill="#1E5631" opacity="0.3"/>
        </g>
        
        <g class="floating-element" transform="translate(0, 100)">
            <rect x="-25" y="-15" width="50" height="30" rx="5" fill="#1E5631" opacity="0.3"/>
            <circle cx="0" cy="0" r="12" fill="#D3071D" opacity="0.3"/>
        </g>
    </g>
    
    <!-- Decorative Lines -->
    <g stroke="url(#gradient3)" stroke-width="2" opacity="0.2">
        <path d="M100 100L500 300" stroke-dasharray="10 10"/>
        <path d="M500 100L100 300" stroke-dasharray="10 10"/>
        <path d="M300 50L300 350" stroke-dasharray="10 10"/>
        <path d="M50 200L550 200" stroke-dasharray="10 10"/>
    </g>
    
    <!-- Floating Particles -->
    <g class="particles">
        <circle cx="150" cy="150" r="5" fill="#D3071D" opacity="0.4"/>
        <circle cx="450" cy="150" r="8" fill="#1E5631" opacity="0.4"/>
        <circle cx="150" cy="250" r="6" fill="#1E5631" opacity="0.4"/>
        <circle cx="450" cy="250" r="4" fill="#D3071D" opacity="0.4"/>
        <circle cx="300" cy="100" r="7" fill="#D3071D" opacity="0.4"/>
        <circle cx="300" cy="300" r="5" fill="#1E5631" opacity="0.4"/>
    </g>
    
    <!-- Gradients -->
    <defs>
        <linearGradient id="gradient1" x1="0" y1="0" x2="600" y2="400">
            <stop offset="0%" stop-color="#D3071D"/>
            <stop offset="100%" stop-color="#1E5631"/>
        </linearGradient>
        <radialGradient id="gradient2" cx="0" cy="0" r="1" gradientUnits="userSpaceOnUse" gradientTransform="translate(300 200) rotate(90) scale(120)">
            <stop offset="0%" stop-color="#D3071D"/>
            <stop offset="100%" stop-color="#1E5631"/>
        </radialGradient>
        <linearGradient id="gradient3" x1="0" y1="0" x2="1" y2="1">
            <stop offset="0%" stop-color="#D3071D"/>
            <stop offset="100%" stop-color="#1E5631"/>
        </linearGradient>
    </defs>
</svg> 