<?xml version="1.0" encoding="UTF-8"?>
<svg width="600" height="400" viewBox="0 0 600 400" fill="none" xmlns="http://www.w3.org/2000/svg">
    <!-- Background Elements -->
    <defs>
        <linearGradient id="gradient1" x1="0" y1="0" x2="600" y2="400">
            <stop offset="0%" stop-color="#D3071D" stop-opacity="0.1"/>
            <stop offset="100%" stop-color="#1E5631" stop-opacity="0.1"/>
        </linearGradient>
        <linearGradient id="gradient2" x1="0" y1="0" x2="1" y2="1">
            <stop offset="0%" stop-color="#D3071D"/>
            <stop offset="100%" stop-color="#1E5631"/>
        </linearGradient>
        <filter id="glow" x="-20%" y="-20%" width="140%" height="140%">
            <feGaussianBlur stdDeviation="5" result="blur"/>
            <feComposite in="SourceGraphic" in2="blur" operator="over"/>
        </filter>
    </defs>

    <!-- Background -->
    <rect width="600" height="400" fill="url(#gradient1)"/>

    <!-- Media Elements -->
    <g transform="translate(300, 200)">
        <!-- Central Media Hub -->
        <circle cx="0" cy="0" r="100" fill="url(#gradient2)" opacity="0.2"/>
        
        <!-- Floating Media Icons -->
        <g class="media-icon" transform="translate(-120, -80)">
            <rect x="-25" y="-25" width="50" height="50" rx="10" fill="#D3071D" opacity="0.8"/>
            <path d="M-15 -15L15 -15L15 15L-15 15Z" stroke="white" stroke-width="2" fill="none"/>
            <path d="M-5 -5L5 -5L5 5L-5 5Z" stroke="white" stroke-width="2" fill="none"/>
        </g>

        <g class="media-icon" transform="translate(120, -80)">
            <circle cx="0" cy="0" r="25" fill="#1E5631" opacity="0.8"/>
            <path d="M-10 -10L10 0L-10 10Z" fill="white"/>
        </g>

        <g class="media-icon" transform="translate(0, 120)">
            <rect x="-30" y="-20" width="60" height="40" rx="5" fill="#D3071D" opacity="0.8"/>
            <path d="M-15 -10L15 -10M-15 0L15 0M-15 10L15 10" stroke="white" stroke-width="2" stroke-linecap="round"/>
        </g>
    </g>

    <!-- Decorative Elements -->
    <g class="decorative">
        <!-- Sound Waves -->
        <path d="M100 200C150 180, 200 220, 250 200" stroke="url(#gradient2)" stroke-width="2" opacity="0.3"/>
        <path d="M350 200C400 180, 450 220, 500 200" stroke="url(#gradient2)" stroke-width="2" opacity="0.3"/>
        
        <!-- Media Particles -->
        <circle cx="150" cy="150" r="5" fill="#D3071D" opacity="0.6"/>
        <circle cx="450" cy="150" r="8" fill="#1E5631" opacity="0.6"/>
        <circle cx="150" cy="250" r="6" fill="#1E5631" opacity="0.6"/>
        <circle cx="450" cy="250" r="4" fill="#D3071D" opacity="0.6"/>
        
        <!-- Connection Lines -->
        <path d="M200 100L400 300" stroke="url(#gradient2)" stroke-width="1" stroke-dasharray="5 5" opacity="0.2"/>
        <path d="M400 100L200 300" stroke="url(#gradient2)" stroke-width="1" stroke-dasharray="5 5" opacity="0.2"/>
    </g>

    <!-- Glowing Elements -->
    <g filter="url(#glow)">
        <circle cx="300" cy="200" r="5" fill="#D3071D" opacity="0.8"/>
        <circle cx="250" cy="150" r="3" fill="#1E5631" opacity="0.8"/>
        <circle cx="350" cy="250" r="4" fill="#D3071D" opacity="0.8"/>
    </g>

    <!-- Animated Elements -->
    <g class="animated">
        <!-- Pulsing Circles -->
        <circle cx="300" cy="200" r="80" stroke="url(#gradient2)" stroke-width="2" opacity="0.1">
            <animate attributeName="r" values="80;90;80" dur="3s" repeatCount="indefinite"/>
            <animate attributeName="opacity" values="0.1;0.2;0.1" dur="3s" repeatCount="indefinite"/>
        </circle>
        
        <!-- Rotating Elements -->
        <g transform="translate(300, 200)">
            <path d="M-40 -40L40 40" stroke="url(#gradient2)" stroke-width="2" opacity="0.2">
                <animateTransform attributeName="transform" type="rotate" from="0" to="360" dur="10s" repeatCount="indefinite"/>
            </path>
        </g>
    </g>
</svg> 